{
	"asset":{
		"generator":"Khronos glTF Blender I/O v4.4.56",
		"version":"2.0"
	},
	"scene":0,
	"scenes":[
		{
			"name":"Scene",
			"nodes":[
				0,
				1,
				2,
				3,
				4,
				5,
				6,
				7,
				8,
				9,
				10,
				11
			]
		}
	],
	"nodes":[
		{
			"mesh":0,
			"name":"SurfPatch",
			"rotation":[
				-0.9645977020263672,
				0.006234926171600819,
				0.26265600323677063,
				0.022897617891430855
			],
			"translation":[
				0.2461230754852295,
				0.8917319774627686,
				3.2085742950439453
			]
		},
		{
			"mesh":1,
			"name":"Plane",
			"rotation":[
				0,
				0.2627299427986145,
				0,
				0.9648694396018982
			],
			"translation":[
				5.566378593444824,
				0,
				0.6253927946090698
			]
		},
		{
			"mesh":2,
			"name":"Plane.001",
			"rotation":[
				0,
				0.2627299427986145,
				0,
				0.9648694396018982
			],
			"translation":[
				-3.8832387924194336,
				-0.8435904383659363,
				2.054251194000244
			]
		},
		{
			"mesh":3,
			"name":"Plane.003",
			"rotation":[
				0,
				0.2627299427986145,
				0,
				0.9648694396018982
			],
			"translation":[
				-3.730555772781372,
				-1.1042368412017822,
				-8.570058822631836
			]
		},
		{
			"mesh":4,
			"name":"Plane.004",
			"rotation":[
				0,
				0.2627299427986145,
				0,
				0.9648694396018982
			],
			"translation":[
				-4.694014549255371,
				0.9674551486968994,
				-11.230916976928711
			]
		},
		{
			"mesh":5,
			"name":"Plane.002",
			"rotation":[
				0,
				0.2627299427986145,
				0,
				0.9648694396018982
			],
			"translation":[
				1.8265416622161865,
				-1.1042368412017822,
				-8.570058822631836
			]
		},
		{
			"mesh":6,
			"name":"Plane.005",
			"rotation":[
				0,
				0.2627299427986145,
				0,
				0.9648694396018982
			],
			"translation":[
				-1.4102342128753662,
				-0.6829522848129272,
				-10.835675239562988
			]
		},
		{
			"mesh":7,
			"name":"Plane.006",
			"rotation":[
				0,
				0.2627299427986145,
				0,
				0.9648694396018982
			],
			"translation":[
				1.2156959772109985,
				-3.5912675857543945,
				-4.715209484100342
			]
		},
		{
			"mesh":8,
			"name":"Plane.007",
			"rotation":[
				0,
				0.2627299427986145,
				0,
				0.9648694396018982
			],
			"translation":[
				-4.776214122772217,
				6.089601039886475,
				-9.930448532104492
			]
		},
		{
			"name":"B\u00e9zierCircle",
			"rotation":[
				0,
				0,
				-0.7071068286895752,
				0.7071068286895752
			],
			"scale":[
				1,
				1,
				1.9800000190734863
			]
		},
		{
			"mesh":9,
			"name":"Cube.006",
			"translation":[
				2.87481689453125,
				0.9752254486083984,
				-0.1669778823852539
			]
		},
		{
			"name":"Empty",
			"rotation":[
				0.4578571319580078,
				0.5415075421333313,
				-0.4804292917251587,
				0.5160661935806274
			],
			"translation":[
				-7.464028358459473,
				3,
				0.16877365112304688
			]
		}
	],
	"materials":[
		{
			"alphaMode":"BLEND",
			"doubleSided":true,
			"emissiveFactor":[
				0.4999999701976776,
				0.4999999701976776,
				0.4999999701976776
			],
			"name":"Material.001",
			"pbrMetallicRoughness":{
				"baseColorFactor":[
					1,
					1,
					1,
					0.5
				],
				"metallicFactor":0,
				"roughnessFactor":0.5
			}
		},
		{
			"alphaMode":"BLEND",
			"doubleSided":true,
			"emissiveFactor":[
				0.19999998807907104,
				0.19999998807907104,
				0.19999998807907104
			],
			"name":"Material.004",
			"pbrMetallicRoughness":{
				"metallicFactor":0,
				"roughnessFactor":0.5
			}
		},
		{
			"alphaMode":"BLEND",
			"doubleSided":true,
			"emissiveFactor":[
				0.19999998807907104,
				0.19999998807907104,
				0.19999998807907104
			],
			"name":"Material.005",
			"pbrMetallicRoughness":{
				"metallicFactor":0,
				"roughnessFactor":0.5
			}
		},
		{
			"alphaMode":"BLEND",
			"doubleSided":true,
			"emissiveFactor":[
				0.5999999642372131,
				0.5999999642372131,
				0.5999999642372131
			],
			"name":"Material.007",
			"pbrMetallicRoughness":{
				"metallicFactor":0,
				"roughnessFactor":0.5
			}
		},
		{
			"alphaMode":"BLEND",
			"doubleSided":true,
			"emissiveFactor":[
				0.19999998807907104,
				0.19999998807907104,
				0.19999998807907104
			],
			"name":"Material.008",
			"pbrMetallicRoughness":{
				"metallicFactor":0,
				"roughnessFactor":0.5
			}
		},
		{
			"alphaMode":"BLEND",
			"doubleSided":true,
			"emissiveFactor":[
				0.19999998807907104,
				0.19999998807907104,
				0.19999998807907104
			],
			"name":"Material.006",
			"pbrMetallicRoughness":{
				"metallicFactor":0,
				"roughnessFactor":0.5
			}
		},
		{
			"alphaMode":"BLEND",
			"doubleSided":true,
			"emissiveFactor":[
				0.19999998807907104,
				0.19999998807907104,
				0.19999998807907104
			],
			"name":"Material.009",
			"pbrMetallicRoughness":{
				"metallicFactor":0,
				"roughnessFactor":0.5
			}
		},
		{
			"alphaMode":"BLEND",
			"doubleSided":true,
			"emissiveFactor":[
				0.19999998807907104,
				0.19999998807907104,
				0.19999998807907104
			],
			"name":"Material.010",
			"pbrMetallicRoughness":{
				"metallicFactor":0,
				"roughnessFactor":0.5
			}
		},
		{
			"alphaMode":"BLEND",
			"doubleSided":true,
			"emissiveFactor":[
				0.19999998807907104,
				0.19999998807907104,
				0.19999998807907104
			],
			"name":"Material.002",
			"pbrMetallicRoughness":{
				"metallicFactor":0,
				"roughnessFactor":0.5
			}
		},
		{
			"doubleSided":true,
			"name":"Material"
		}
	],
	"meshes":[
		{
			"name":"SurfPatch",
			"primitives":[
				{
					"attributes":{
						"POSITION":0,
						"NORMAL":1,
						"TEXCOORD_0":2
					},
					"indices":3,
					"material":0
				}
			]
		},
		{
			"name":"Plane",
			"primitives":[
				{
					"attributes":{
						"POSITION":4,
						"NORMAL":5,
						"TEXCOORD_0":6
					},
					"indices":7,
					"material":1
				}
			]
		},
		{
			"name":"Plane.001",
			"primitives":[
				{
					"attributes":{
						"POSITION":8,
						"NORMAL":9,
						"TEXCOORD_0":10
					},
					"indices":11,
					"material":2
				}
			]
		},
		{
			"name":"Plane.003",
			"primitives":[
				{
					"attributes":{
						"POSITION":12,
						"NORMAL":13,
						"TEXCOORD_0":14
					},
					"indices":15,
					"material":3
				}
			]
		},
		{
			"name":"Plane.004",
			"primitives":[
				{
					"attributes":{
						"POSITION":16,
						"NORMAL":17,
						"TEXCOORD_0":18
					},
					"indices":19,
					"material":4
				}
			]
		},
		{
			"name":"Plane.005",
			"primitives":[
				{
					"attributes":{
						"POSITION":20,
						"NORMAL":21,
						"TEXCOORD_0":22
					},
					"indices":15,
					"material":5
				}
			]
		},
		{
			"name":"Plane.006",
			"primitives":[
				{
					"attributes":{
						"POSITION":23,
						"NORMAL":24,
						"TEXCOORD_0":25
					},
					"indices":15,
					"material":6
				}
			]
		},
		{
			"name":"Plane.007",
			"primitives":[
				{
					"attributes":{
						"POSITION":26,
						"NORMAL":27,
						"TEXCOORD_0":28
					},
					"indices":29,
					"material":7
				}
			]
		},
		{
			"name":"Plane.008",
			"primitives":[
				{
					"attributes":{
						"POSITION":30,
						"NORMAL":31,
						"TEXCOORD_0":32
					},
					"indices":15,
					"material":8
				}
			]
		},
		{
			"name":"Cube",
			"primitives":[
				{
					"attributes":{
						"POSITION":33,
						"NORMAL":34,
						"TEXCOORD_0":35
					},
					"indices":36,
					"material":9
				}
			]
		}
	],
	"accessors":[
		{
			"bufferView":0,
			"componentType":5126,
			"count":149,
			"max":[
				7.889899253845215,
				-1.8456693887710571,
				8.400064468383789
			],
			"min":[
				-0.6992255449295044,
				-8.950394630432129,
				-6.046671390533447
			],
			"type":"VEC3"
		},
		{
			"bufferView":1,
			"componentType":5126,
			"count":149,
			"type":"VEC3"
		},
		{
			"bufferView":2,
			"componentType":5126,
			"count":149,
			"type":"VEC2"
		},
		{
			"bufferView":3,
			"componentType":5123,
			"count":630,
			"type":"SCALAR"
		},
		{
			"bufferView":4,
			"componentType":5126,
			"count":16,
			"max":[
				7.299487590789795,
				8.610795021057129,
				8.06949520111084
			],
			"min":[
				-8.297767639160156,
				0.5479205846786499,
				-8.026314735412598
			],
			"type":"VEC3"
		},
		{
			"bufferView":5,
			"componentType":5126,
			"count":16,
			"type":"VEC3"
		},
		{
			"bufferView":6,
			"componentType":5126,
			"count":16,
			"type":"VEC2"
		},
		{
			"bufferView":7,
			"componentType":5123,
			"count":24,
			"type":"SCALAR"
		},
		{
			"bufferView":8,
			"componentType":5126,
			"count":16,
			"max":[
				-2.3828375339508057,
				13.018980026245117,
				4.622384071350098
			],
			"min":[
				-8.010696411132812,
				4.44752836227417,
				-4.9430999755859375
			],
			"type":"VEC3"
		},
		{
			"bufferView":9,
			"componentType":5126,
			"count":16,
			"type":"VEC3"
		},
		{
			"bufferView":10,
			"componentType":5126,
			"count":16,
			"type":"VEC2"
		},
		{
			"bufferView":11,
			"componentType":5123,
			"count":24,
			"type":"SCALAR"
		},
		{
			"bufferView":12,
			"componentType":5126,
			"count":16,
			"max":[
				3.624147415161133,
				11.587146759033203,
				11.04433536529541
			],
			"min":[
				-0.2592534124851227,
				2.372504234313965,
				8.730222702026367
			],
			"type":"VEC3"
		},
		{
			"bufferView":13,
			"componentType":5126,
			"count":16,
			"type":"VEC3"
		},
		{
			"bufferView":14,
			"componentType":5126,
			"count":16,
			"type":"VEC2"
		},
		{
			"bufferView":15,
			"componentType":5123,
			"count":24,
			"type":"SCALAR"
		},
		{
			"bufferView":16,
			"componentType":5126,
			"count":16,
			"max":[
				2.3414361476898193,
				7.3192033767700195,
				14.345769882202148
			],
			"min":[
				-11.835205078125,
				0.6367853283882141,
				0.7327185273170471
			],
			"type":"VEC3"
		},
		{
			"bufferView":17,
			"componentType":5126,
			"count":16,
			"type":"VEC3"
		},
		{
			"bufferView":18,
			"componentType":5126,
			"count":16,
			"type":"VEC2"
		},
		{
			"bufferView":19,
			"componentType":5123,
			"count":24,
			"type":"SCALAR"
		},
		{
			"bufferView":20,
			"componentType":5126,
			"count":16,
			"max":[
				7.087556838989258,
				10.077980995178223,
				8.063222885131836
			],
			"min":[
				-11.031322479248047,
				-0.20625022053718567,
				5.730856418609619
			],
			"type":"VEC3"
		},
		{
			"bufferView":21,
			"componentType":5126,
			"count":16,
			"type":"VEC3"
		},
		{
			"bufferView":22,
			"componentType":5126,
			"count":16,
			"type":"VEC2"
		},
		{
			"bufferView":23,
			"componentType":5126,
			"count":16,
			"max":[
				0.24643747508525848,
				5.17470645904541,
				18.71341323852539
			],
			"min":[
				-14.167752265930176,
				0.9223755598068237,
				0.9164953231811523
			],
			"type":"VEC3"
		},
		{
			"bufferView":24,
			"componentType":5126,
			"count":16,
			"type":"VEC3"
		},
		{
			"bufferView":25,
			"componentType":5126,
			"count":16,
			"type":"VEC2"
		},
		{
			"bufferView":26,
			"componentType":5126,
			"count":16,
			"max":[
				-5.642353057861328,
				12.344707489013672,
				8.940314292907715
			],
			"min":[
				-10.112494468688965,
				5.2352800369262695,
				-0.1777605414390564
			],
			"type":"VEC3"
		},
		{
			"bufferView":27,
			"componentType":5126,
			"count":16,
			"type":"VEC3"
		},
		{
			"bufferView":28,
			"componentType":5126,
			"count":16,
			"type":"VEC2"
		},
		{
			"bufferView":29,
			"componentType":5123,
			"count":24,
			"type":"SCALAR"
		},
		{
			"bufferView":30,
			"componentType":5126,
			"count":16,
			"max":[
				-0.04228556156158447,
				4.975412845611572,
				19.02503204345703
			],
			"min":[
				-13.209768295288086,
				-6.831479549407959,
				-2.5534377098083496
			],
			"type":"VEC3"
		},
		{
			"bufferView":31,
			"componentType":5126,
			"count":16,
			"type":"VEC3"
		},
		{
			"bufferView":32,
			"componentType":5126,
			"count":16,
			"type":"VEC2"
		},
		{
			"bufferView":33,
			"componentType":5126,
			"count":24,
			"max":[
				25.17616081237793,
				20.44009780883789,
				21.210819244384766
			],
			"min":[
				-25.17616081237793,
				-20.44009780883789,
				-21.210819244384766
			],
			"type":"VEC3"
		},
		{
			"bufferView":34,
			"componentType":5126,
			"count":24,
			"type":"VEC3"
		},
		{
			"bufferView":35,
			"componentType":5126,
			"count":24,
			"type":"VEC2"
		},
		{
			"bufferView":36,
			"componentType":5123,
			"count":36,
			"type":"SCALAR"
		}
	],
	"bufferViews":[
		{
			"buffer":0,
			"byteLength":1788,
			"byteOffset":0,
			"target":34962
		},
		{
			"buffer":0,
			"byteLength":1788,
			"byteOffset":1788,
			"target":34962
		},
		{
			"buffer":0,
			"byteLength":1192,
			"byteOffset":3576,
			"target":34962
		},
		{
			"buffer":0,
			"byteLength":1260,
			"byteOffset":4768,
			"target":34963
		},
		{
			"buffer":0,
			"byteLength":192,
			"byteOffset":6028,
			"target":34962
		},
		{
			"buffer":0,
			"byteLength":192,
			"byteOffset":6220,
			"target":34962
		},
		{
			"buffer":0,
			"byteLength":128,
			"byteOffset":6412,
			"target":34962
		},
		{
			"buffer":0,
			"byteLength":48,
			"byteOffset":6540,
			"target":34963
		},
		{
			"buffer":0,
			"byteLength":192,
			"byteOffset":6588,
			"target":34962
		},
		{
			"buffer":0,
			"byteLength":192,
			"byteOffset":6780,
			"target":34962
		},
		{
			"buffer":0,
			"byteLength":128,
			"byteOffset":6972,
			"target":34962
		},
		{
			"buffer":0,
			"byteLength":48,
			"byteOffset":7100,
			"target":34963
		},
		{
			"buffer":0,
			"byteLength":192,
			"byteOffset":7148,
			"target":34962
		},
		{
			"buffer":0,
			"byteLength":192,
			"byteOffset":7340,
			"target":34962
		},
		{
			"buffer":0,
			"byteLength":128,
			"byteOffset":7532,
			"target":34962
		},
		{
			"buffer":0,
			"byteLength":48,
			"byteOffset":7660,
			"target":34963
		},
		{
			"buffer":0,
			"byteLength":192,
			"byteOffset":7708,
			"target":34962
		},
		{
			"buffer":0,
			"byteLength":192,
			"byteOffset":7900,
			"target":34962
		},
		{
			"buffer":0,
			"byteLength":128,
			"byteOffset":8092,
			"target":34962
		},
		{
			"buffer":0,
			"byteLength":48,
			"byteOffset":8220,
			"target":34963
		},
		{
			"buffer":0,
			"byteLength":192,
			"byteOffset":8268,
			"target":34962
		},
		{
			"buffer":0,
			"byteLength":192,
			"byteOffset":8460,
			"target":34962
		},
		{
			"buffer":0,
			"byteLength":128,
			"byteOffset":8652,
			"target":34962
		},
		{
			"buffer":0,
			"byteLength":192,
			"byteOffset":8780,
			"target":34962
		},
		{
			"buffer":0,
			"byteLength":192,
			"byteOffset":8972,
			"target":34962
		},
		{
			"buffer":0,
			"byteLength":128,
			"byteOffset":9164,
			"target":34962
		},
		{
			"buffer":0,
			"byteLength":192,
			"byteOffset":9292,
			"target":34962
		},
		{
			"buffer":0,
			"byteLength":192,
			"byteOffset":9484,
			"target":34962
		},
		{
			"buffer":0,
			"byteLength":128,
			"byteOffset":9676,
			"target":34962
		},
		{
			"buffer":0,
			"byteLength":48,
			"byteOffset":9804,
			"target":34963
		},
		{
			"buffer":0,
			"byteLength":192,
			"byteOffset":9852,
			"target":34962
		},
		{
			"buffer":0,
			"byteLength":192,
			"byteOffset":10044,
			"target":34962
		},
		{
			"buffer":0,
			"byteLength":128,
			"byteOffset":10236,
			"target":34962
		},
		{
			"buffer":0,
			"byteLength":288,
			"byteOffset":10364,
			"target":34962
		},
		{
			"buffer":0,
			"byteLength":288,
			"byteOffset":10652,
			"target":34962
		},
		{
			"buffer":0,
			"byteLength":192,
			"byteOffset":10940,
			"target":34962
		},
		{
			"buffer":0,
			"byteLength":72,
			"byteOffset":11132,
			"target":34963
		}
	],
	"buffers":[
		{
			"byteLength":11204,
			"uri":"childrenofthecity.bin"
		}
	]
}
