{
	"asset":{
		"generator":"Khronos glTF Blender I/O v4.5.47",
		"version":"2.0"
	},
	"scene":0,
	"scenes":[
		{
			"name":"Scene",
			"nodes":[
				0
			]
		}
	],
	"nodes":[
		{
			"mesh":0,
			"name":"SurfPatch",
			"rotation":[
				-0.9645977020263672,
				0.006234926171600819,
				0.26265600323677063,
				0.022897617891430855
			],
			"translation":[
				0.2461230754852295,
				0.8917319774627686,
				3.2085742950439453
			]
		}
	],
	"materials":[
		{
			"alphaMode":"BLEND",
			"doubleSided":true,
			"emissiveFactor":[
				0.4999999701976776,
				0.4999999701976776,
				0.4999999701976776
			],
			"name":"Material.001",
			"pbrMetallicRoughness":{
				"baseColorFactor":[
					1,
					1,
					1,
					0.5
				],
				"metallicFactor":0,
				"roughnessFactor":0.5
			}
		}
	],
	"meshes":[
		{
			"name":"SurfPatch",
			"primitives":[
				{
					"attributes":{
						"POSITION":0,
						"NORMAL":1,
						"TEXCOORD_0":2
					},
					"indices":3,
					"material":0
				}
			]
		}
	],
	"accessors":[
		{
			"bufferView":0,
			"componentType":5126,
			"count":149,
			"max":[
				7.889899253845215,
				-1.8456693887710571,
				8.400064468383789
			],
			"min":[
				-0.6992255449295044,
				-8.950394630432129,
				-6.046671390533447
			],
			"type":"VEC3"
		},
		{
			"bufferView":1,
			"componentType":5126,
			"count":149,
			"type":"VEC3"
		},
		{
			"bufferView":2,
			"componentType":5126,
			"count":149,
			"type":"VEC2"
		},
		{
			"bufferView":3,
			"componentType":5123,
			"count":630,
			"type":"SCALAR"
		}
	],
	"bufferViews":[
		{
			"buffer":0,
			"byteLength":1788,
			"byteOffset":0,
			"target":34962
		},
		{
			"buffer":0,
			"byteLength":1788,
			"byteOffset":1788,
			"target":34962
		},
		{
			"buffer":0,
			"byteLength":1192,
			"byteOffset":3576,
			"target":34962
		},
		{
			"buffer":0,
			"byteLength":1260,
			"byteOffset":4768,
			"target":34963
		}
	],
	"buffers":[
		{
			"byteLength":6028,
			"uri":"childrenofthecity-swoosh.bin"
		}
	]
}
